# xmcd
#
# Track frame offsets: 
#        150
#        17592
#        36437
#        55163
#        70819
#        91410
#        111078
#        131055
#        149927
#        168591
#
# Disc length: 2471 seconds
#
# Revision: 0
# Processed by: cddbd v1.5.1PL2 Copyright (c) Steve Scherf et al.
# Submitted via: ExactAudioCopy v0.95a5
#
DISCID=9409a50a
DTITLE=Grupo Morenos - Perseverancia
DYEAR=2005
DGENRE=Latin
TTITLE0=Si Tu No Estas
TTITLE1=Sacrificio De Amor
TTITLE2=Ojos Azules
TTITLE3=Me Enamore
TTITLE4=Cancion Del Adios
TTITLE5=Oye Amor
TTITLE6=Aquella
TTITLE7=Como Pretendes
TTITLE8=Puro Mio Tu Cuerpo
TTITLE9=Nunca Dejare
EXTD=
EXTT0=
EXTT1=
EXTT2=
EXTT3=
EXTT4=
EXTT5=
EXTT6=
EXTT7=
EXTT8=
EXTT9=
PLAYORDER=
